<?xml version="1.0" encoding="utf-8"?>
<!-- Generator: Adobe Illustrator 27.9.0, SVG Export Plug-In . SVG Version: 6.00 Build 0)  -->
<svg version="1.1" id="Capa_2_00000137097922180709959910000013242278513821214366_"
	 xmlns="http://www.w3.org/2000/svg" xmlns:xlink="http://www.w3.org/1999/xlink" x="0px" y="0px" viewBox="0 0 444.7 193.3"
	 style="enable-background:new 0 0 444.7 193.3;" xml:space="preserve">
<style type="text/css">
	.st0{fill:#FFFFFF;}
	.st1{fill:none;}
</style>
<g id="Capa_1-2">
	<g>
		<path class="st0" d="M155.1,122.4h8.5v0.8c-1.2,0.1-2.1,0.3-2.6,0.8s-1.4,1.7-2.6,3.9c-1.2,2.1-2.5,4.2-4,6
			c1.2,1.4,2.3,2.4,3.2,2.9s1.9,0.8,2.8,0.8s1.7-0.2,2.4-0.8c0.7-0.5,1.1-1.2,1.4-2.2l0.8,0.6c-0.5,1.9-1.3,3.3-2.4,4.2
			c-1.1,0.9-2.4,1.4-3.9,1.4c-1.1,0-2.3-0.3-3.4-0.9c-1.1-0.6-2.4-1.6-3.7-3.1c-1.7,1.5-3.2,2.5-4.5,3.1c-1.4,0.6-2.8,0.9-4.3,0.9
			c-2.2,0-4-0.6-5.3-1.8c-1.3-1.2-2-2.6-2-4.3s0.6-3.2,1.8-4.9c1.2-1.6,3.4-3.3,6.6-5.1c-0.6-1.4-1.1-2.6-1.3-3.5s-0.3-1.8-0.3-2.6
			c0-2.3,0.9-4.1,2.6-5.3c1.3-0.9,2.8-1.4,4.5-1.4s2.9,0.5,3.9,1.4c1,0.9,1.5,2.1,1.5,3.5s-0.6,2.8-1.7,4c-0.9,0.9-2.5,2-5,3.3
			c1.7,3.1,3.5,5.9,5.4,8.4c2.4-2.8,3.6-5.2,3.6-7.1c0-0.7-0.2-1.2-0.6-1.7c-0.3-0.3-0.7-0.6-1.3-0.6L155.1,122.4L155.1,122.4z
			 M150.5,135.6c-1.8-2.4-3-4.2-3.7-5.3c-0.7-1.1-1.4-2.5-2.3-4.2c-3.3,1.9-4.9,4.1-4.9,6.7c0,1.4,0.5,2.7,1.4,3.8s2.2,1.6,3.8,1.6
			c0.8,0,1.6-0.2,2.4-0.5S149.1,136.7,150.5,135.6L150.5,135.6z M147.4,122.9c3.3-1.6,5-3.6,5-6.1c0-1-0.3-1.8-0.9-2.4
			c-0.6-0.6-1.4-0.9-2.3-0.9c-1,0-1.8,0.4-2.5,1.1s-1,1.6-1,2.6c0,0.6,0.1,1.3,0.3,2.2S146.7,121.4,147.4,122.9L147.4,122.9z"/>
		<g>
			<path class="st1" d="M183.4,71.2c-2.1-1.7-5.2-3-9.3-3.7c-1.6-0.3-2.9-0.6-4-0.9s-1.9-0.7-2.5-1.1s-1.1-0.9-1.4-1.4
				c-0.3-0.5-0.4-1.1-0.4-1.8c0-1.3,0.5-2.3,1.6-3.1s2.5-1.1,4.4-1.1c2.2,0,3.9,0.6,5.1,1.7s1.8,2.5,1.8,4v1.3h7.3v-2
				c0-1.6-0.3-3.1-0.9-4.5s-1.5-2.7-2.7-3.8c-1.2-1.1-2.7-2-4.4-2.6c-1.8-0.6-3.8-1-6.1-1c-2,0-3.9,0.3-5.5,0.8
				c-1.6,0.5-3,1.3-4.2,2.3s-2.1,2.2-2.7,3.5c-0.6,1.3-1,2.8-1,4.4v0.3c0,1.9,0.3,3.5,1,4.9c0.7,1.3,1.6,2.4,2.8,3.3
				s2.6,1.6,4.2,2.1c1.6,0.5,3.4,1,5.4,1.3c1.5,0.3,2.7,0.6,3.6,0.9c1,0.4,1.7,0.8,2.3,1.2c0.6,0.5,0.9,1,1.2,1.6s0.3,1.2,0.3,1.8
				c0,1.3-0.5,2.5-1.6,3.4c-1.1,1-2.7,1.4-4.9,1.4c-2.8,0-4.9-0.7-6.3-2.1s-2-3.2-2-5.6v-1.3h-7.3v1.7c0,2,0.3,3.9,1,5.6
				s1.6,3.2,2.9,4.5c1.3,1.3,2.9,2.3,4.8,3c1.9,0.7,4.2,1.1,6.7,1.1c2.2,0,4.1-0.3,5.9-0.8c1.7-0.6,3.2-1.3,4.4-2.4
				c1.2-1,2.1-2.3,2.8-3.7c0.6-1.4,1-3.1,1-4.9v-0.7C186.6,75.5,185.6,73,183.4,71.2L183.4,71.2z"/>
			<path class="st1" d="M239.6,104.7c-4.4,0-7.9,1.4-10.5,4.1s-3.8,6.6-3.8,11.7v8.6c0,5.1,1.3,9.1,3.8,11.8s6,4,10.5,4
				s7.9-1.3,10.5-4s3.8-6.6,3.8-11.8v-8.6c0-5-1.3-8.9-3.8-11.7S244.1,104.7,239.6,104.7z M246.6,129.6c0,1.3-0.1,2.5-0.3,3.5
				c-0.2,1.1-0.6,2-1.2,2.8c-0.6,0.8-1.3,1.4-2.1,1.8c-0.9,0.4-2,0.6-3.3,0.6s-2.4-0.2-3.3-0.6s-1.6-1-2.1-1.8s-0.9-1.7-1.2-2.8
				c-0.2-1.1-0.3-2.2-0.3-3.5v-9.5c0-1.2,0.1-2.3,0.4-3.4s0.7-2,1.2-2.8s1.3-1.4,2.1-1.8c0.9-0.5,1.9-0.7,3.2-0.7s2.3,0.2,3.2,0.7
				c0.9,0.5,1.6,1.1,2.1,1.8s1,1.7,1.2,2.8c0.3,1.1,0.4,2.2,0.4,3.4V129.6z"/>
			<path class="st1" d="M216.5,108.6c-1.2-1.2-2.7-2.2-4.4-2.9c-1.8-0.7-3.8-1-6.1-1s-4.2,0.4-6,1.1c-1.8,0.7-3.3,1.8-4.5,3.1
				s-2.2,3-2.9,5c-0.7,2-1,4.2-1,6.7v8.6c0,5.1,1.3,9.1,3.9,11.8c2.6,2.7,6.1,4,10.5,4s8.1-1.2,10.5-3.7c2.4-2.5,3.6-6,3.6-10.6v-1
				h-7.3v1c0,1-0.1,2-0.3,2.9c-0.2,0.9-0.5,1.8-1,2.5c-0.5,0.7-1.2,1.3-2.1,1.7c-0.9,0.4-2.1,0.6-3.4,0.6c-1.3,0-2.4-0.2-3.3-0.6
				s-1.6-1-2.2-1.8s-1-1.7-1.2-2.7c-0.3-1.1-0.4-2.2-0.4-3.4v-9.7c0-1.1,0.1-2.2,0.4-3.3c0.3-1.1,0.7-2,1.3-2.8s1.3-1.4,2.2-1.9
				c0.9-0.5,1.9-0.7,3.1-0.7c1.3,0,2.4,0.2,3.3,0.7s1.6,1.1,2.1,1.8c0.5,0.7,0.9,1.6,1.1,2.5c0.2,0.9,0.3,1.8,0.3,2.8v1h7.3v-1
				c0-2.2-0.3-4.2-0.9-6C218.6,111.3,217.7,109.8,216.5,108.6L216.5,108.6z"/>
			<polygon class="st1" points="247,93.9 239.6,93.9 236.7,101.4 242.4,101.4 			"/>
			<polygon class="st1" points="213.3,40.4 205.9,40.4 203.1,47.9 208.7,47.9 			"/>
			<polygon class="st1" points="218.8,83.7 209.5,83.7 209.5,58.9 218.8,58.9 218.8,52 192.9,52 192.9,58.9 202.2,58.9 202.2,83.7 
				192.9,83.7 192.9,90.6 218.8,90.6 			"/>
			<path class="st1" d="M81.8,55.5c-1-1-2.2-1.9-3.7-2.5c-1.5-0.6-3.2-1-5.2-1H57.8v38.6h7.3V76h7.8c2,0,3.7-0.3,5.2-1
				c1.5-0.7,2.7-1.5,3.7-2.6s1.7-2.3,2.2-3.7s0.8-2.8,0.8-4.2v-1.3c0-1.4-0.2-2.8-0.8-4.1S82.8,56.5,81.8,55.5L81.8,55.5z
				 M77.4,64.3c0,1.4-0.5,2.5-1.4,3.4s-2.2,1.3-3.8,1.3h-7.1V58.9h7.1c1.6,0,2.9,0.4,3.8,1.3c0.9,0.9,1.4,2,1.4,3.4V64.3L77.4,64.3z
				"/>
			<polygon class="st1" points="133.2,74.7 149.6,74.7 149.6,67.8 133.2,67.8 133.2,58.9 150.3,58.9 150.3,52 125.9,52 125.9,90.6 
				151,90.6 151,83.7 133.2,83.7 			"/>
			<path class="st1" d="M104.5,51.2c-4.4,0-7.9,1.4-10.5,4.1S90.2,62,90.2,67v8.6c0,5.2,1.3,9.1,3.8,11.8s6,4,10.5,4s7.9-1.3,10.5-4
				s3.8-6.6,3.8-11.8V67c0-5-1.3-8.9-3.8-11.7C112.4,52.6,108.9,51.2,104.5,51.2z M111.4,76c0,1.3-0.1,2.5-0.3,3.5
				c-0.2,1.1-0.6,2-1.2,2.8c-0.6,0.8-1.3,1.4-2.2,1.8c-0.9,0.4-2,0.6-3.3,0.6s-2.4-0.2-3.3-0.6s-1.6-1-2.2-1.8s-0.9-1.7-1.2-2.8
				s-0.3-2.2-0.3-3.5v-9.5c0-1.2,0.1-2.3,0.4-3.4s0.7-2,1.2-2.8s1.3-1.4,2.2-1.8c0.9-0.5,1.9-0.7,3.2-0.7s2.3,0.2,3.2,0.7
				s1.6,1.1,2.2,1.8s1,1.7,1.2,2.8c0.3,1.1,0.4,2.2,0.4,3.4L111.4,76L111.4,76z"/>
			<path class="st1" d="M351.3,108.8c-1.2-1.3-2.7-2.3-4.4-3s-3.7-1.1-5.9-1.1s-4.1,0.3-5.9,1c-1.8,0.7-3.3,1.7-4.5,3
				c-1.3,1.3-2.3,2.9-3,4.9c-0.7,1.9-1.1,4.2-1.1,6.7v9c0,2.6,0.3,4.8,1,6.8s1.6,3.6,2.7,4.9s2.5,2.3,4,2.9s3.2,1,5,1
				c2.5,0,4.4-0.5,5.6-1.5s2.1-2.2,2.5-3.6h1v4.3h6.6v-19.5h-16.6v7h9.3c0,1.9-0.6,3.5-1.7,4.7c-1.1,1.2-2.8,1.7-4.9,1.7
				c-4.9,0-7.3-3-7.3-8.9v-8.2c0-3.3,0.7-5.7,2-7.1c1.3-1.4,3-2.1,5.1-2.1c2.2,0,3.9,0.6,5,1.8c1.2,1.2,1.8,2.9,1.8,5.3v0.7h7.3
				v-0.7c0-1.9-0.3-3.8-0.9-5.5S352.5,110,351.3,108.8L351.3,108.8z"/>
			<path class="st1" d="M232.8,52l-9.2,38.6h7.6l1.9-8.3h13.1l1.9,8.3h7.6L246.5,52L232.8,52L232.8,52z M234.6,75.4l4.5-19.8h1
				l4.5,19.8H234.6z"/>
			<polygon class="st1" points="294.3,112.4 303.5,112.4 303.5,137.2 294.3,137.2 294.3,144.1 320.1,144.1 320.1,137.2 310.8,137.2 
				310.8,112.4 320.1,112.4 320.1,105.5 294.3,105.5 			"/>
			<path class="st1" d="M374.7,104.7c-4.5,0-7.9,1.4-10.5,4.1s-3.8,6.6-3.8,11.7v8.6c0,5.1,1.3,9.1,3.8,11.8s6,4,10.5,4
				s7.9-1.3,10.5-4s3.8-6.6,3.8-11.8v-8.6c0-5-1.3-8.9-3.8-11.7S379.2,104.7,374.7,104.7z M381.7,129.6c0,1.3-0.1,2.5-0.3,3.5
				c-0.2,1.1-0.6,2-1.2,2.8c-0.5,0.8-1.3,1.4-2.1,1.8s-2,0.6-3.3,0.6s-2.4-0.2-3.3-0.6s-1.6-1-2.1-1.8s-0.9-1.7-1.2-2.8
				c-0.2-1.1-0.3-2.2-0.3-3.5v-9.5c0-1.2,0.1-2.3,0.4-3.4s0.7-2,1.2-2.8s1.3-1.4,2.1-1.8s2-0.7,3.2-0.7s2.3,0.2,3.2,0.7
				s1.6,1.1,2.1,1.8s1,1.7,1.2,2.8c0.3,1.1,0.4,2.2,0.4,3.4L381.7,129.6L381.7,129.6z"/>
			<path class="st1" d="M273.1,105.5h-14v7h3.6v24.7h-3.6v7h14c4.8,0,8.3-1.1,10.6-3.3c2.3-2.2,3.5-5.7,3.5-10.4v-11.3
				c0-4.7-1.2-8.1-3.5-10.3C281.4,106.6,277.9,105.5,273.1,105.5z M279.9,129.8c0,2.5-0.5,4.4-1.5,5.6c-1,1.2-2.8,1.8-5.3,1.8H270
				v-24.7h3.1c2.5,0,4.3,0.6,5.3,1.7c1,1.1,1.5,2.8,1.5,5V129.8L279.9,129.8z"/>
			<path class="st0" d="M245,113.9c-0.6-0.8-1.3-1.4-2.1-1.8c-0.9-0.5-1.9-0.7-3.2-0.7s-2.3,0.2-3.2,0.7c-0.9,0.5-1.6,1.1-2.1,1.8
				s-1,1.7-1.2,2.8c-0.3,1.1-0.4,2.2-0.4,3.4v9.5c0,1.3,0.1,2.5,0.3,3.5c0.2,1.1,0.6,2,1.2,2.8s1.3,1.4,2.1,1.8
				c0.9,0.4,2,0.6,3.3,0.6s2.4-0.2,3.3-0.6s1.6-1,2.1-1.8c0.6-0.8,0.9-1.7,1.2-2.8c0.2-1.1,0.3-2.2,0.3-3.5v-9.5
				c0-1.2-0.1-2.3-0.4-3.4S245.5,114.6,245,113.9z"/>
			<path class="st0" d="M72.2,58.9h-7.1v10.2h7.1c1.6,0,2.9-0.4,3.8-1.3c0.9-0.9,1.4-2,1.4-3.4v-0.7c0-1.4-0.5-2.5-1.4-3.4
				S73.8,58.9,72.2,58.9L72.2,58.9z"/>
			<polygon class="st0" points="239.1,55.6 234.6,75.4 244.6,75.4 240.1,55.6 			"/>
			<path class="st0" d="M109.8,60.4c-0.6-0.8-1.3-1.4-2.2-1.8c-0.9-0.5-1.9-0.7-3.2-0.7s-2.3,0.2-3.2,0.7s-1.6,1.1-2.2,1.8
				s-1,1.7-1.2,2.8c-0.3,1.1-0.4,2.2-0.4,3.4V76c0,1.3,0.1,2.5,0.3,3.5c0.2,1.1,0.6,2,1.2,2.8s1.3,1.4,2.2,1.8
				c0.9,0.4,2,0.6,3.3,0.6s2.4-0.2,3.3-0.6s1.6-1,2.2-1.8c0.6-0.8,0.9-1.7,1.2-2.8s0.3-2.2,0.3-3.5v-9.5c0-1.2-0.1-2.3-0.4-3.4
				S110.4,61.1,109.8,60.4L109.8,60.4z"/>
			<path class="st0" d="M381.9,0H0v124.2h121.1c1.1-15.1,13.7-26.9,29-26.9c16.1,0,29.1,13,29.1,29.1s-13,29.1-29.1,29.1
				s-27.9-11.9-29-26.9H0v64.7h444.7V62.8C444.7,28.1,416.6,0,381.9,0z M205.9,40.4h7.4l-4.6,7.5h-5.6L205.9,40.4L205.9,40.4z
				 M192.9,83.7h9.3V58.9h-9.3v-7h25.8v7h-9.3v24.7h9.3v7h-25.8V83.7z M84.7,64.5c0,1.4-0.2,2.8-0.8,4.2c-0.5,1.4-1.2,2.6-2.2,3.7
				c-1,1.1-2.2,2-3.7,2.6s-3.2,1-5.2,1h-7.8v14.6h-7.3V52h15.1c2,0,3.7,0.3,5.2,1c1.5,0.6,2.7,1.5,3.7,2.5s1.7,2.2,2.2,3.6
				s0.8,2.7,0.8,4.1L84.7,64.5L84.7,64.5z M118.7,75.6c0,5.2-1.3,9.1-3.8,11.8s-6,4-10.5,4s-7.9-1.3-10.5-4s-3.8-6.6-3.8-11.8V67
				c0-5,1.3-8.9,3.8-11.7c2.5-2.8,6-4.1,10.5-4.1s7.9,1.4,10.5,4.1s3.8,6.6,3.8,11.7V75.6z M151,90.6h-25.1V52h24.4v7h-17.1v8.8
				h16.4v6.9h-16.4v8.9H151V90.6z M186.6,79.6c0,1.8-0.3,3.4-1,4.9c-0.6,1.4-1.6,2.7-2.8,3.7c-1.2,1-2.7,1.8-4.4,2.4
				s-3.7,0.8-5.9,0.8c-2.5,0-4.8-0.4-6.7-1.1c-1.9-0.7-3.5-1.7-4.8-3c-1.3-1.3-2.3-2.8-2.9-4.5c-0.7-1.7-1-3.6-1-5.6v-1.7h7.3v1.3
				c0,2.3,0.7,4.2,2,5.6c1.3,1.4,3.4,2.1,6.3,2.1c2.2,0,3.9-0.5,4.9-1.4c1.1-1,1.6-2.1,1.6-3.4c0-0.6-0.1-1.2-0.3-1.8
				s-0.6-1.1-1.2-1.6c-0.6-0.5-1.3-0.9-2.3-1.2c-1-0.4-2.2-0.7-3.6-0.9c-1.9-0.3-3.7-0.8-5.4-1.3c-1.6-0.5-3-1.2-4.2-2.1
				c-1.2-0.9-2.1-2-2.8-3.3c-0.7-1.3-1-2.9-1-4.9v-0.3c0-1.6,0.3-3,1-4.4c0.6-1.3,1.6-2.5,2.7-3.5s2.6-1.8,4.2-2.3s3.5-0.8,5.5-0.8
				c2.3,0,4.3,0.3,6.1,1c1.8,0.6,3.2,1.5,4.4,2.6c1.2,1.1,2.1,2.4,2.7,3.8c0.6,1.4,0.9,2.9,0.9,4.5v2h-7.3v-1.3c0-1.5-0.6-2.9-1.8-4
				c-1.2-1.1-2.9-1.7-5.1-1.7c-1.8,0-3.3,0.4-4.4,1.1s-1.6,1.8-1.6,3.1c0,0.7,0.1,1.3,0.4,1.8c0.3,0.5,0.7,1,1.4,1.4
				c0.6,0.4,1.5,0.8,2.5,1.1c1.1,0.3,2.4,0.6,4,0.9c4.1,0.7,7.1,2,9.3,3.7c2.1,1.7,3.2,4.3,3.2,7.7L186.6,79.6L186.6,79.6z
				 M220.1,120.1h-7.3v-1c0-0.9-0.1-1.8-0.3-2.8c-0.2-0.9-0.6-1.8-1.1-2.5c-0.5-0.7-1.2-1.3-2.1-1.8c-0.9-0.5-2-0.7-3.3-0.7
				c-1.2,0-2.3,0.2-3.1,0.7c-0.9,0.5-1.6,1.1-2.2,1.9c-0.6,0.8-1,1.7-1.3,2.8s-0.4,2.1-0.4,3.3v9.7c0,1.2,0.1,2.4,0.4,3.4
				s0.7,2,1.2,2.7s1.3,1.4,2.2,1.8s2,0.6,3.3,0.6c1.4,0,2.6-0.2,3.4-0.6s1.6-1,2.1-1.7s0.8-1.6,1-2.5c0.2-0.9,0.3-1.9,0.3-2.9v-1
				h7.3v1c0,4.6-1.2,8.1-3.6,10.6c-2.4,2.5-5.9,3.7-10.5,3.7s-7.9-1.3-10.5-4s-3.9-6.6-3.9-11.8v-8.6c0-2.5,0.3-4.7,1-6.7
				s1.6-3.6,2.9-5c1.2-1.3,2.8-2.4,4.5-3.1c1.8-0.7,3.8-1.1,6-1.1s4.3,0.3,6.1,1c1.8,0.7,3.2,1.6,4.4,2.9c1.2,1.2,2.1,2.8,2.7,4.5
				c0.6,1.8,0.9,3.8,0.9,6L220.1,120.1L220.1,120.1z M253.8,129.1c0,5.1-1.3,9.1-3.8,11.8s-6,4-10.5,4s-7.9-1.3-10.5-4
				s-3.8-6.6-3.8-11.8v-8.6c0-5,1.3-8.9,3.8-11.7s6-4.1,10.5-4.1s7.9,1.4,10.5,4.1s3.8,6.6,3.8,11.7V129.1z M236.7,101.4l2.9-7.5
				h7.4l-4.6,7.5H236.7L236.7,101.4z M248.1,90.6l-1.9-8.3H233l-1.9,8.3h-7.6l9.2-38.6h13.7l9.2,38.6H248.1L248.1,90.6z
				 M287.2,130.4c0,4.7-1.2,8.1-3.5,10.4c-2.3,2.2-5.9,3.3-10.6,3.3h-14v-7h3.6v-24.7h-3.6v-7h14c4.8,0,8.3,1.1,10.6,3.3
				c2.3,2.2,3.5,5.7,3.5,10.3V130.4z M320.1,112.4h-9.3v24.7h9.3v7h-25.8v-7h9.3v-24.7h-9.3v-7h25.8V112.4z M355,119.4h-7.3v-0.7
				c0-2.3-0.6-4.1-1.8-5.3c-1.2-1.2-2.9-1.8-5-1.8s-3.8,0.7-5.1,2.1s-2,3.8-2,7.1v8.2c0,6,2.4,8.9,7.3,8.9c2.2,0,3.8-0.6,4.9-1.7
				s1.7-2.7,1.7-4.7h-9.3v-7H355v19.5h-6.6v-4.3h-1c-0.4,1.4-1.3,2.6-2.5,3.6c-1.2,1-3.1,1.5-5.6,1.5c-1.8,0-3.4-0.3-5-1
				s-2.9-1.6-4-2.9c-1.1-1.3-2-2.9-2.7-4.9c-0.7-1.9-1-4.2-1-6.8v-9.1c0-2.5,0.4-4.7,1.1-6.7s1.7-3.6,3-4.9c1.3-1.3,2.8-2.3,4.5-3
				c1.8-0.7,3.7-1,5.9-1s4.2,0.4,5.9,1.1s3.2,1.7,4.4,3c1.2,1.3,2.1,2.8,2.8,4.5s0.9,3.5,0.9,5.5L355,119.4L355,119.4z M389,129.1
				c0,5.1-1.3,9.1-3.8,11.8c-2.5,2.7-6,4-10.5,4s-7.9-1.3-10.5-4s-3.8-6.6-3.8-11.8v-8.6c0-5,1.3-8.9,3.8-11.7s6-4.1,10.5-4.1
				s7.9,1.4,10.5,4.1s3.8,6.6,3.8,11.7V129.1z"/>
			<path class="st0" d="M380.1,113.9c-0.5-0.8-1.3-1.4-2.1-1.8s-2-0.7-3.2-0.7s-2.3,0.2-3.2,0.7s-1.6,1.1-2.1,1.8s-1,1.7-1.2,2.8
				c-0.3,1.1-0.4,2.2-0.4,3.4v9.5c0,1.3,0.1,2.5,0.3,3.5c0.2,1.1,0.6,2,1.2,2.8s1.3,1.4,2.1,1.8s2,0.6,3.3,0.6s2.4-0.2,3.3-0.6
				s1.6-1,2.1-1.8c0.5-0.8,0.9-1.7,1.2-2.8c0.2-1.1,0.3-2.2,0.3-3.5v-9.5c0-1.2-0.1-2.3-0.4-3.4S380.6,114.6,380.1,113.9
				L380.1,113.9z"/>
			<path class="st0" d="M273.1,112.4H270v24.7h3.1c2.5,0,4.3-0.6,5.3-1.8c1-1.2,1.5-3.1,1.5-5.6v-10.6c0-2.2-0.5-3.9-1.5-5
				C277.4,113,275.6,112.4,273.1,112.4L273.1,112.4z"/>
		</g>
	</g>
</g>
</svg>
